<svg xmlns="http://www.w3.org/2000/svg" xmlns:xlink="http://www.w3.org/1999/xlink" width="18" height="20" viewBox="0 0 18 20">
    <defs>
        <path id="b" d="M0 24h360v108H0z"/>
        <filter id="a" width="104.4%" height="114.8%" x="-2.2%" y="-6.5%" filterUnits="objectBoundingBox">
            <feOffset dy="1" in="SourceAlpha" result="shadowOffsetOuter1"/>
            <feGaussianBlur in="shadowOffsetOuter1" result="shadowBlurOuter1" stdDeviation="2.5"/>
            <feColorMatrix in="shadowBlurOuter1" values="0 0 0 0 0.84 0 0 0 0 0.84 0 0 0 0 0.84 0 0 0 1 0"/>
        </filter>
    </defs>
    <g fill="none" fill-rule="evenodd">
        <path fill="#FFF" d="M-287-45H73v650h-360z"/>
        <g fill-rule="nonzero" transform="translate(-287 -45)">
            <use fill="#000" filter="url(#a)" xlink:href="#b"/>
            <use fill="#FFF" xlink:href="#b"/>
        </g>
        <path fill="#FFF" fill-rule="nonzero" d="M-287-21H73v60h-360z"/>
        <g transform="translate(-3 -1)">
            <path d="M0 0h24v24H0z"/>
            <path fill="#3D3B3B" fill-rule="nonzero" d="M19 3h-1V1h-2v2H8V1H6v2H5c-1.11 0-1.99.9-1.99 2L3 19a2 2 0 0 0 2 2h14c1.1 0 2-.9 2-2V5c0-1.1-.9-2-2-2zm0 16H5V8h14v11z"/>
            <rect width="5" height="5" x="7" y="10" fill="#FE4E65" fill-rule="nonzero" rx="2.5"/>
        </g>
    </g>
</svg>
